<svg width="1200" height="630" viewBox="0 0 1200 630" fill="none" xmlns="http://www.w3.org/2000/svg">
  <defs>
    <linearGradient id="bg" x1="88" y1="74" x2="1116" y2="560" gradientUnits="userSpaceOnUse">
      <stop stop-color="#0F274C"/>
      <stop offset="1" stop-color="#1A3A6B"/>
    </linearGradient>
    <linearGradient id="accent" x1="820" y1="126" x2="1036" y2="362" gradientUnits="userSpaceOnUse">
      <stop stop-color="#F04A3A"/>
      <stop offset="1" stop-color="#DC2626"/>
    </linearGradient>
  </defs>
  <rect width="1200" height="630" rx="36" fill="url(#bg)"/>
  <rect x="58" y="58" width="1084" height="514" rx="30" stroke="rgba(255,255,255,0.14)" stroke-width="2"/>
  <path d="M0 500C214 444 310 416 434 360C578 296 664 228 808 160C919 108 1020 78 1200 32V630H0V500Z" fill="rgba(255,255,255,0.05)"/>
  <path d="M826 128H1038V340H826V128Z" fill="url(#accent)"/>
  <path d="M790 164H1142V198H790V164Z" fill="#F5F7FB" fill-opacity="0.18"/>
  <path d="M790 242H1142V276H790V242Z" fill="#F5F7FB" fill-opacity="0.18"/>
  <path d="M790 320H1142V354H790V320Z" fill="#F5F7FB" fill-opacity="0.18"/>
  <circle cx="946" cy="234" r="122" stroke="#F5F7FB" stroke-opacity="0.16" stroke-width="2"/>
  <circle cx="946" cy="234" r="78" stroke="#F5F7FB" stroke-opacity="0.2" stroke-width="2"/>
  <path d="M140 170H290" stroke="#F04A3A" stroke-width="10" stroke-linecap="round"/>
  <text x="140" y="258" fill="#F5F7FB" font-family="Sarabun, Arial, sans-serif" font-size="88" font-weight="700">NTP Electric</text>
  <text x="140" y="336" fill="#F5F7FB" font-family="Sarabun, Arial, sans-serif" font-size="88" font-weight="700">&amp; Engineering</text>
  <text x="140" y="408" fill="#D7E2F1" font-family="Sarabun, Arial, sans-serif" font-size="30" font-weight="500">Industrial Electrical Systems • Control Panels • Cold Room Engineering</text>
  <rect x="140" y="450" width="438" height="64" rx="32" fill="rgba(255,255,255,0.08)" stroke="rgba(255,255,255,0.12)"/>
  <text x="172" y="491" fill="#F5F7FB" font-family="Sarabun, Arial, sans-serif" font-size="26" font-weight="600">Trusted engineering solutions for modern facilities</text>
</svg>
